# xmcd
#
# Track frame offsets:
#	150
#	18737
#	37610
#	55282
#	73460
#	92392
#	108597
#	126932
#	142257
#	158005
#	172542
#	191910
#
# Disc length: 2706 seconds
#
# Revision: 1
# Processed by: cddbd v1.5.1PL0 Copyright (c) Steve Scherf et al.
# Submitted via: CDex 1.50Beta5
#
DISCID=a40a900c
DTITLE=太陽の塔 - やっぱり地球は動いてる
DYEAR=1995
DGENRE=Rock
TTITLE0=明日の歌
TTITLE1=屋根のない朝
TTITLE2=ラブレター
TTITLE3=ぜいたく
TTITLE4=いい気味
TTITLE5=ウラ
TTITLE6=やっぱり地球は動いてる
TTITLE7=月曜日
TTITLE8=たまには僕次第
TTITLE9=犬を洗う
TTITLE10=鉄人ライブショウ
TTITLE11=遊びに行こうよ
EXTD=
EXTT0=
EXTT1=
EXTT2=
EXTT3=
EXTT4=
EXTT5=
EXTT6=
EXTT7=
EXTT8=
EXTT9=
EXTT10=
EXTT11=
PLAYORDER=
